<svg width="413" height="413" viewBox="0 0 413 413" fill="none" xmlns="http://www.w3.org/2000/svg">
<path d="M0 206.5C0 92.4532 92.4532 0 206.5 0V0C320.547 0 413 92.4532 413 206.5V206.5C413 320.547 320.547 413 206.5 413V413C92.4532 413 0 320.547 0 206.5V206.5Z" fill="#2563EB"/>
<path d="M162.755 171.386V143.445C162.755 139.192 162.755 137.066 163.379 135.168C163.931 133.488 164.834 131.945 166.028 130.641C167.378 129.167 169.231 128.126 172.939 126.044L199.541 111.103C203.086 109.112 204.859 108.117 206.739 107.723C208.402 107.375 210.12 107.371 211.785 107.711C213.667 108.095 215.445 109.081 219 111.055L246.035 126.062C249.773 128.137 251.642 129.175 253.003 130.651C254.207 131.957 255.118 133.505 255.676 135.192C256.306 137.098 256.306 139.236 256.306 143.512V171.319C256.306 175.555 256.306 177.673 255.686 179.566C255.137 181.241 254.24 182.78 253.053 184.082C251.711 185.555 249.868 186.598 246.182 188.686L219.148 203.992C215.542 206.034 213.739 207.055 211.827 207.451C210.135 207.803 208.388 207.798 206.697 207.439C204.787 207.032 202.989 206.002 199.394 203.943L172.792 188.703C169.136 186.609 167.308 185.562 165.978 184.092C164.802 182.791 163.913 181.257 163.369 179.59C162.755 177.706 162.755 175.599 162.755 171.386Z" fill="white"/>
<path d="M214.78 256.518V228.577C214.78 224.324 214.78 222.198 215.404 220.299C215.956 218.62 216.859 217.077 218.053 215.773C219.403 214.299 221.256 213.258 224.964 211.175L251.566 196.235C255.111 194.244 256.884 193.248 258.764 192.855C260.427 192.507 262.145 192.503 263.81 192.843C265.692 193.227 267.47 194.213 271.025 196.187L298.06 211.194C301.798 213.269 303.667 214.306 305.028 215.783C306.232 217.089 307.143 218.637 307.701 220.323C308.331 222.23 308.331 224.368 308.331 228.643V256.45C308.331 260.687 308.331 262.805 307.711 264.698C307.162 266.372 306.265 267.912 305.078 269.214C303.736 270.686 301.893 271.73 298.207 273.817L271.173 289.124C267.567 291.166 265.764 292.187 263.852 292.583C262.16 292.934 260.413 292.93 258.722 292.57C256.812 292.164 255.014 291.134 251.419 289.074L224.817 273.835C221.161 271.741 219.333 270.693 218.003 269.224C216.827 267.923 215.938 266.389 215.394 264.722C214.78 262.837 214.78 260.731 214.78 256.518Z" fill="white"/>
<path d="M110.729 256.518V228.577C110.729 224.324 110.729 222.198 111.354 220.299C111.906 218.62 112.809 217.077 114.003 215.773C115.353 214.299 117.206 213.258 120.914 211.175L147.516 196.235C151.061 194.244 152.834 193.248 154.714 192.855C156.377 192.507 158.095 192.503 159.76 192.843C161.642 193.227 163.42 194.213 166.975 196.187L194.01 211.194C197.748 213.269 199.617 214.306 200.978 215.783C202.182 217.089 203.093 218.637 203.651 220.323C204.281 222.23 204.281 224.368 204.281 228.643V256.45C204.281 260.687 204.281 262.805 203.661 264.698C203.112 266.372 202.215 267.912 201.028 269.214C199.686 270.686 197.843 271.73 194.157 273.817L167.123 289.124C163.517 291.166 161.714 292.187 159.802 292.583C158.11 292.934 156.363 292.93 154.672 292.57C152.762 292.164 150.964 291.134 147.369 289.074L120.767 273.835C117.111 271.741 115.283 270.693 113.953 269.224C112.777 267.923 111.888 266.389 111.344 264.722C110.729 262.837 110.729 260.731 110.729 256.518Z" fill="white"/>
</svg>
