<svg width="898" height="900" viewBox="0 0 898 900" fill="none" xmlns="http://www.w3.org/2000/svg">
<path d="M662.428 198.922L765.338 354.235C781.001 377.873 788.832 389.692 792.296 402.582C795.361 413.985 795.941 425.943 793.998 437.662C791.8 450.907 785.16 463.636 771.878 489.094L676.587 671.741C663.887 696.084 657.537 708.256 648.362 717.48C640.243 725.644 630.554 732.097 619.892 736.445C607.844 741.357 594.165 742.528 566.807 744.869L358.768 762.674C330.001 765.136 315.618 766.366 302.489 763.257C290.875 760.506 280.024 755.313 270.662 748.024C260.079 739.786 252.205 727.903 236.458 704.136L134.041 549.568C118.437 526.018 110.635 514.244 107.169 501.401C104.102 490.038 103.504 478.122 105.412 466.438C107.57 453.232 114.141 440.529 127.285 415.123L223.67 228.82C236.526 203.97 242.954 191.546 252.298 182.18C260.567 173.893 270.454 167.378 281.33 163.047C293.621 158.154 307.573 157.147 335.476 155.134L541.928 140.241L541.929 140.241C570.3 138.195 584.486 137.171 597.413 140.363C608.852 143.187 619.525 148.385 628.738 155.617C639.15 163.792 646.91 175.502 662.428 198.922Z" fill="#2D69F6"/>
<path d="M497.364 230.704L632.249 209.853C652.779 206.68 663.043 205.093 672.683 206.757C681.212 208.228 689.35 211.532 696.555 216.45C704.699 222.008 711.14 230.377 724.021 247.116L816.432 367.21C828.748 383.216 834.906 391.219 838.238 400.2C841.187 408.149 842.517 416.619 842.147 425.089C841.73 434.66 838.322 444.166 831.506 463.18L779.677 607.759C772.51 627.751 768.927 637.747 762.838 645.563C757.452 652.479 750.674 658.13 742.957 662.139C734.233 666.67 723.913 668.266 703.272 671.456L569.034 692.206C548.582 695.368 538.356 696.949 528.746 695.301C520.244 693.843 512.129 690.564 504.935 685.681C496.805 680.162 490.361 671.847 477.472 655.216L382.962 533.262C370.356 516.995 364.054 508.862 360.68 499.723C357.694 491.637 356.384 483.016 356.83 474.407C357.335 464.68 360.936 455.042 368.137 435.766L421.418 293.146L421.418 293.146C428.74 273.547 432.402 263.747 438.483 256.089C443.864 249.314 450.591 243.783 458.226 239.857C466.854 235.42 477.024 233.848 497.364 230.704Z" fill="#6BE5EE"/>
</svg>
